<svg width="24" height="24" viewBox="0 0 24 24" fill="none" xmlns="http://www.w3.org/2000/svg">
<path d="M3.778 11.942C2.83 10.29 2.372 8.94001 2.096 7.57201C1.688 5.54801 2.622 3.57101 4.169 2.30901C4.823 1.77601 5.573 1.95901 5.96 2.65201L6.833 4.21901C7.525 5.46101 7.871 6.08101 7.803 6.73901C7.734 7.39801 7.267 7.93401 6.334 9.00601L3.778 11.942ZM3.778 11.942C5.697 15.288 8.708 18.302 12.058 20.222M12.058 20.222C13.711 21.17 15.06 21.628 16.428 21.904C18.452 22.312 20.429 21.378 21.69 19.831C22.224 19.177 22.041 18.427 21.348 18.04L19.781 17.167C18.539 16.475 17.919 16.129 17.261 16.197C16.602 16.266 16.066 16.733 14.994 17.666L12.058 20.222Z" stroke="black" stroke-width="1.5" stroke-linecap="round" stroke-linejoin="round"/>
</svg>
