<svg width="24" height="24" viewBox="0 0 24 24" fill="none" xmlns="http://www.w3.org/2000/svg">
<path d="M18.375 0H5.625C2.5184 0 0 2.5184 0 5.625V18.375C0 21.4816 2.5184 24 5.625 24H18.375C21.4816 24 24 21.4816 24 18.375V5.625C24 2.5184 21.4816 0 18.375 0Z" fill="#242938"/>
<mask id="mask0_21_184" style="mask-type:luminance" maskUnits="userSpaceOnUse" x="5" y="2" width="14" height="20">
<path d="M5.71875 2.625H18.2213V21.375H5.71875V2.625Z" fill="white"/>
</mask>
<g mask="url(#mask0_21_184)">
<path d="M8.84503 21.375C10.57 21.375 11.97 19.975 11.97 18.25V15.125H8.84503C7.12003 15.125 5.71997 16.525 5.71997 18.25C5.71997 19.975 7.12003 21.375 8.84503 21.375Z" fill="#0ACF83"/>
<path d="M5.71997 12C5.71997 10.275 7.12003 8.87503 8.84503 8.87503H11.97V15.125H8.84503C7.12003 15.125 5.71997 13.725 5.71997 12Z" fill="#A259FF"/>
<path d="M5.71997 5.74997C5.71997 4.02497 7.12003 2.625 8.84503 2.625H11.97V8.87503H8.84503C7.12003 8.87503 5.71997 7.47497 5.71997 5.74997Z" fill="#F24E1E"/>
<path d="M11.97 2.625H15.095C16.82 2.625 18.22 4.02497 18.22 5.74997C18.22 7.47497 16.82 8.87503 15.095 8.87503H11.97V2.625Z" fill="#FF7262"/>
<path d="M18.22 12C18.22 13.725 16.82 15.125 15.095 15.125C13.37 15.125 11.97 13.725 11.97 12C11.97 10.275 13.37 8.87503 15.095 8.87503C16.82 8.87503 18.22 10.275 18.22 12Z" fill="#1ABCFE"/>
</g>
</svg>
