<svg width="25" height="24" viewBox="0 0 25 24" fill="none" xmlns="http://www.w3.org/2000/svg">
<g clip-path="url(#clip0_10_293)">
<path d="M20.498 0H4.082C1.82868 0 0.0019989 1.82668 0.0019989 4.08V19.8816C0.0019989 22.1349 1.82868 23.9616 4.082 23.9616H20.498C22.7513 23.9616 24.578 22.1349 24.578 19.8816V4.08C24.578 1.82668 22.7513 0 20.498 0Z" fill="#330000"/>
<path d="M11.9112 14.3799H8.10286L7.32795 16.7869C7.31741 16.8308 7.29187 16.8696 7.25576 16.8967C7.21964 16.9238 7.17519 16.9374 7.13009 16.9353H5.20117C5.09121 16.9353 5.05275 16.8748 5.08577 16.7538L8.38309 7.25771C8.41605 7.15883 8.44901 7.04619 8.48197 6.91979C8.52517 6.69976 8.54725 6.47627 8.54792 6.25211C8.54567 6.23643 8.54711 6.22044 8.55211 6.20541C8.55712 6.19039 8.56555 6.17673 8.57675 6.16552C8.58794 6.15432 8.60159 6.14587 8.61662 6.14086C8.63164 6.13584 8.64763 6.13439 8.66331 6.13662H11.2847C11.3615 6.13662 11.4055 6.16414 11.4166 6.21918L15.159 16.7703C15.1919 16.8804 15.159 16.9354 15.0601 16.9353H12.9168C12.88 16.9393 12.843 16.9298 12.8127 16.9086C12.7823 16.8874 12.7608 16.8558 12.752 16.8199L11.9112 14.3799ZM8.69633 12.3026H11.3012L11.264 12.18L11.2044 11.9859L11.1619 11.8496L11.094 11.6349L10.9497 11.1831L10.8228 10.7824L10.4933 9.73892C10.4112 9.47952 10.3325 9.21908 10.2571 8.95768L10.1968 8.74552L10.1264 8.49467L10.0188 8.10587L9.99867 8.03262H9.98225C9.89974 8.42834 9.79928 8.8201 9.6812 9.2067L9.43659 9.99352L9.302 10.4282L9.16616 10.8683C9.14165 10.9478 9.11717 11.0263 9.09272 11.104L9.01976 11.3343L8.94718 11.5591L8.87499 11.7783L8.80318 11.9921C8.77937 12.0625 8.7556 12.132 8.73185 12.2005L8.69633 12.3026ZM17.3844 7.88421C17.2163 7.89093 17.0486 7.86211 16.8924 7.79961C16.7361 7.73711 16.5948 7.64235 16.4777 7.52152C16.361 7.39538 16.2703 7.24743 16.2109 7.08617C16.1515 6.9249 16.1245 6.75349 16.1314 6.58177C16.1255 6.41177 16.1554 6.24241 16.2193 6.08477C16.2832 5.92712 16.3797 5.78473 16.5024 5.66689C16.739 5.43972 17.0542 5.31259 17.3822 5.31198L17.4174 5.31237C17.8131 5.31237 18.1236 5.43051 18.3489 5.6668C18.4627 5.78961 18.551 5.93363 18.609 6.09064C18.667 6.24764 18.6935 6.41453 18.6869 6.58177C18.6938 6.75419 18.6661 6.92625 18.6052 7.08772C18.5443 7.24918 18.4515 7.39674 18.3324 7.52161C18.2122 7.64006 18.0696 7.73327 17.9128 7.79576C17.7561 7.85824 17.5884 7.88874 17.4197 7.88545L17.3844 7.88421ZM16.2468 16.7703V8.8899C16.2468 8.79096 16.2907 8.74149 16.3787 8.74149H18.4066C18.4945 8.74149 18.5385 8.79096 18.5385 8.8899V16.7703C18.5385 16.8804 18.4946 16.9354 18.4066 16.9353H16.3952C16.3016 16.9353 16.2522 16.8859 16.2473 16.7872L16.2468 16.7703Z" fill="#FF9A00"/>
</g>
<defs>
<clipPath id="clip0_10_293">
<rect width="24.58" height="24" fill="white"/>
</clipPath>
</defs>
</svg>
