<svg width="25" height="24" viewBox="0 0 25 24" fill="none" xmlns="http://www.w3.org/2000/svg">
<g clip-path="url(#clip0_10_291)">
<path d="M4.35397 0H20.226C22.6324 0 24.578 1.94563 24.578 4.35197V19.6096C24.578 22.016 22.6324 23.9616 20.226 23.9616H4.35397C1.94763 23.9616 0.0019989 22.016 0.0019989 19.6096V4.35197C0.0019989 1.94563 1.94763 0 4.35397 0Z" fill="#00005B"/>
<path d="M5.8388 16.8038V6.26688C5.8388 6.19517 5.86952 6.15427 5.94123 6.15427L6.08984 6.15399L6.20485 6.15303L6.28597 6.15149L6.37237 6.14928L6.4652 6.14602L6.51464 6.144C6.6068 6.14016 6.7004 6.13776 6.79592 6.13575L7.0892 6.1296C7.12254 6.12883 7.15617 6.12794 7.19009 6.12691L7.29281 6.12355C7.38497 6.12023 7.47944 6.11767 7.57621 6.11587L7.87313 6.11059L8.07867 6.10608L8.18379 6.10301C8.39537 6.09629 8.60245 6.09399 8.80798 6.09322L9.11557 6.09283C9.95528 6.09283 10.6516 6.19517 11.2251 6.41021C11.7391 6.58482 12.2078 6.87166 12.5972 7.24992C12.9271 7.58103 13.182 7.97913 13.3448 8.41728C13.4984 8.84736 13.5802 9.28771 13.5802 9.74851C13.5802 10.6292 13.3754 11.3562 12.9658 11.9296C12.5562 12.503 11.9828 12.9331 11.3172 13.1789C10.6441 13.4264 9.90401 13.5206 9.09694 13.5267H8.80424L8.69029 13.5255L8.61723 13.5238L8.57422 13.522L8.53563 13.5197L8.50117 13.5168C8.47906 13.5147 8.45691 13.513 8.43474 13.5118L8.38481 13.5096L8.33009 13.5082L8.2388 13.5069L8.06091 13.5065V16.7936C8.07109 16.8653 8.01992 16.9267 7.94821 16.937H5.96168C5.87979 16.937 5.8388 16.896 5.8388 16.8038ZM8.07109 8.13053V11.5712L8.19147 11.5798C8.2843 11.5869 8.37735 11.5909 8.47045 11.5917H9.01323C9.41259 11.5917 9.81195 11.5303 10.1908 11.4074C10.5185 11.3152 10.8052 11.1206 11.0305 10.8646C11.2455 10.6087 11.348 10.2605 11.348 9.80995C11.3576 9.48994 11.2759 9.1738 11.1124 8.89853C10.9456 8.64346 10.7129 8.44474 10.4325 8.32944L10.3956 8.31485C10.0167 8.16125 9.60709 8.09981 9.18728 8.11008L8.95054 8.11037L8.83928 8.11104L8.73301 8.11248L8.63211 8.11479C8.5829 8.11607 8.53585 8.11792 8.49099 8.12035C8.46898 8.11925 8.44697 8.11836 8.42494 8.11767L8.3636 8.11632L8.3348 8.11613L8.28046 8.11642L8.23112 8.11776L8.20827 8.11872L8.16632 8.12112L8.12945 8.124L8.11285 8.12554L8.08376 8.1289L8.07109 8.13053ZM15.0138 8.72448H16.8058C16.9025 8.72448 16.981 8.78842 17.0153 8.87319L17.0209 8.88835C17.0516 8.97024 17.072 9.05213 17.0823 9.14429C17.1028 9.24672 17.1233 9.35933 17.1335 9.46176L17.1421 9.56083C17.1488 9.64541 17.154 9.73536 17.154 9.8304C17.4473 9.48803 17.799 9.20041 18.1927 8.9809L18.2497 8.94979C18.7208 8.68349 19.2634 8.55043 19.8061 8.55043C19.8778 8.54016 19.9393 8.59133 19.9496 8.66304V10.7008C19.9496 10.7827 19.8983 10.8134 19.7857 10.8134C19.4416 10.8038 19.0887 10.8301 18.7518 10.9001L18.6798 10.9159C18.3828 10.9773 18.0961 11.0695 17.8196 11.1924C17.625 11.2845 17.4407 11.4074 17.2974 11.5712V16.7936C17.2974 16.896 17.2564 16.937 17.1642 16.937H15.147C15.0651 16.9472 14.9934 16.896 14.9831 16.8141V11.1002C14.9831 10.8544 14.9831 10.5984 14.9729 10.3322L14.9668 10.1325L14.9585 9.73315C14.957 9.66659 14.9549 9.60003 14.9524 9.53347C14.9524 9.29789 14.9319 9.07267 14.9115 8.83709C14.9012 8.78592 14.9319 8.73475 14.9831 8.72448C14.9831 8.71575 14.9982 8.7145 15.0089 8.72064L15.0138 8.72448Z" fill="#9999FF"/>
</g>
<defs>
<clipPath id="clip0_10_291">
<rect width="24.58" height="24" fill="white"/>
</clipPath>
</defs>
</svg>
