<svg width="24" height="24" viewBox="0 0 24 24" fill="none" xmlns="http://www.w3.org/2000/svg">
<path d="M20.9109 6.60937C20.8882 6.55315 20.8521 6.50328 20.8059 6.46405C20.7596 6.42481 20.7046 6.39738 20.6454 6.38411C20.5862 6.37084 20.5247 6.37212 20.4661 6.38784C20.4075 6.40356 20.3536 6.43325 20.3091 6.47437L16.3884 10.0931L14.3438 9.65625L13.905 7.61343L17.5238 3.69281C17.5651 3.64823 17.5949 3.59427 17.6108 3.53559C17.6266 3.4769 17.628 3.41524 17.6147 3.35592C17.6014 3.29661 17.5739 3.24141 17.5345 3.19508C17.4952 3.14876 17.4451 3.11269 17.3888 3.09C16.1917 2.60529 14.8756 2.49561 13.6148 2.77547C12.354 3.05533 11.2079 3.71153 10.3283 4.6572C9.44868 5.60286 8.87705 6.79338 8.68908 8.07113C8.5011 9.34887 8.70565 10.6536 9.27563 11.8125L3.4125 16.875L3.39282 16.8937C2.90051 17.3861 2.62393 18.0538 2.62393 18.75C2.62393 19.4462 2.90051 20.1139 3.39282 20.6062C3.88512 21.0986 4.55284 21.3751 5.24907 21.3751C5.94529 21.3751 6.61301 21.0986 7.10532 20.6062L7.12407 20.5866L12.1866 14.7234C13.1587 15.2015 14.2367 15.424 15.3187 15.3699C16.4007 15.3157 17.451 14.9867 18.3706 14.4139C19.2901 13.8412 20.0485 13.0435 20.5742 12.0962C21.0999 11.149 21.3755 10.0833 21.375 9C21.3766 8.18059 21.2189 7.36869 20.9109 6.60937ZM15 14.625C14.0491 14.6251 13.1137 14.3842 12.2813 13.9247C12.2055 13.8822 12.1174 13.8673 12.0319 13.8825C11.9465 13.8977 11.8689 13.9421 11.8125 14.0081L6.5625 20.0859C6.20583 20.4091 5.73854 20.5827 5.25738 20.5709C4.77622 20.5591 4.31804 20.3626 3.97771 20.0223C3.63737 19.682 3.44095 19.2238 3.4291 18.7426C3.41725 18.2615 3.59089 17.7942 3.91407 17.4375L9.99094 12.1875C10.057 12.1311 10.1014 12.0535 10.1166 11.9681C10.1318 11.8826 10.1169 11.7945 10.0744 11.7187C9.53458 10.7426 9.29721 9.62795 9.39244 8.51654C9.48766 7.40513 9.91118 6.34713 10.6092 5.47701C11.3072 4.60689 12.2481 3.96394 13.3124 3.62989C14.3767 3.29583 15.5162 3.28575 16.5863 3.60093L13.2234 7.24593C13.1823 7.28981 13.1522 7.34296 13.1359 7.40089C13.1196 7.45882 13.1175 7.51982 13.1297 7.57875L13.6603 10.0491C13.6755 10.1196 13.7107 10.1844 13.7618 10.2354C13.8128 10.2865 13.8775 10.3217 13.9481 10.3369L16.4184 10.8675C16.4774 10.8797 16.5384 10.8776 16.5963 10.8613C16.6542 10.845 16.7074 10.8149 16.7513 10.7737L20.3953 7.41093C20.6413 8.24972 20.6886 9.13426 20.5335 9.9945C20.3783 10.8547 20.025 11.667 19.5015 12.367C18.978 13.067 18.2986 13.6355 17.5173 14.0274C16.736 14.4193 15.8741 14.6239 15 14.625Z" fill="black"/>
</svg>
