<svg width="24" height="24" viewBox="0 0 24 24" fill="none" xmlns="http://www.w3.org/2000/svg">
<path d="M18.375 0H5.625C2.5184 0 0 2.5184 0 5.625V18.375C0 21.4816 2.5184 24 5.625 24H18.375C21.4816 24 24 21.4816 24 18.375V5.625C24 2.5184 21.4816 0 18.375 0Z" fill="#242938"/>
<path d="M3.16087 9.39449C3.16087 9.39449 2.71697 9.07452 3.24965 8.6473L4.49053 7.53768C4.49053 7.53768 4.84566 7.16409 5.22103 7.48959L16.6725 16.1595V20.3169C16.6725 20.3169 16.667 20.9698 15.8291 20.8976L3.16087 9.39449Z" fill="#2489CA"/>
<path d="M6.1125 12.0742L3.16088 14.7577C3.16088 14.7577 2.8575 14.9833 3.16088 15.3865L4.53122 16.6329C4.53122 16.6329 4.85672 16.9825 5.33756 16.5848L8.46675 14.2121L6.1125 12.0742Z" fill="#1070B3"/>
<path d="M11.2944 12.0965L16.7077 7.96303L16.6725 3.82781C16.6725 3.82781 16.4413 2.92528 15.6701 3.39506L8.46675 9.95109L11.2944 12.0965Z" fill="#0877B9"/>
<path d="M15.8291 20.9033C16.1436 21.225 16.5246 21.1196 16.5246 21.1196L20.743 19.0409C21.283 18.6728 21.2072 18.2161 21.2072 18.2161V5.80294C21.2072 5.25732 20.6486 5.06879 20.6486 5.06879L16.9925 3.30629C16.1935 2.81251 15.6701 3.39507 15.6701 3.39507C15.6701 3.39507 16.3432 2.91057 16.6725 3.82782V20.2411C16.6729 20.353 16.6483 20.4636 16.6004 20.5648C16.5042 20.759 16.2952 20.9402 15.7941 20.8643L15.8291 20.9033Z" fill="#3C99D4"/>
</svg>
